<svg width="19" height="19" viewBox="0 0 19 19" fill="none" xmlns="http://www.w3.org/2000/svg">
<g id="Search">
<path id="icon/action/zoom_in_24px" fill-rule="evenodd" clip-rule="evenodd" d="M12.0181 11.4567H12.6435L16.0081 14.8292C16.3327 15.1537 16.3327 15.6762 16.0081 16.0008L16.0002 16.0087C15.6756 16.3333 15.1531 16.3333 14.8285 16.0087L11.456 12.6442V12.0187L11.2423 11.7971C10.1339 12.7471 8.62185 13.2379 7.01476 12.9687C4.81393 12.5967 3.05643 10.76 2.78726 8.54332C2.38351 5.19457 5.19393 2.37624 8.54268 2.7879C10.7593 3.05707 12.596 4.81457 12.9681 7.0154C13.2373 8.62249 12.7464 10.1346 11.7964 11.2429L12.0181 11.4567ZM4.33102 7.89416C4.33102 9.86541 5.92227 11.4567 7.89352 11.4567C9.86477 11.4567 11.456 9.86541 11.456 7.89416C11.456 5.9229 9.86477 4.33165 7.89352 4.33165C5.92227 4.33165 4.33102 5.9229 4.33102 7.89416Z" fill="white"/>
</g>
</svg>
